<?xml version="1.0" encoding="utf-8"?>
<!-- Uploaded to: SVG Repo, www.svgrepo.com, Generator: SVG Repo Mixer Tools -->
<svg width="800px" height="800px" viewBox="0 0 1024 1024" class="icon"  version="1.1" xmlns="http://www.w3.org/2000/svg"><path d="M513.206137 945.045131c-18.817988 0-33.872174-15.263059-33.872174-33.872174V648.348761h67.744348v262.824196c0 18.817988-15.054186 33.872174-33.872174 33.872174z" fill="#F9AC82" /><path d="M506.097301 857.227511c-6.899963 0-12.545667-5.645704-12.545667-12.545667v-166.852353c0-6.899963 5.645704-12.545667 12.545667-12.545667s12.545667 5.645704 12.545667 12.545667v166.852353c-0.001024 7.10986-5.436831 12.545667-12.545667 12.545667zM506.097301 919.744925c-6.899963 0-12.545667-5.645704-12.545667-12.545667V884.199722c0-6.899963 5.645704-12.545667 12.545667-12.545667s12.545667 5.645704 12.545667 12.545667v22.999536c-0.001024 6.900987-5.436831 12.545667-12.545667 12.545667z" fill="#F8BC95" /><path d="M562.969011 718.39378h-99.316876c-63.353928 0-114.789832-51.435903-114.789832-114.789832V191.282256c0-63.353928 51.435903-114.789832 114.789832-114.789831h99.316876c63.353928 0 114.789832 51.435903 114.789832 114.789831v412.530565c0 63.145056-51.435903 114.580959-114.789832 114.580959z" fill="#703E28" /><path d="M562.969011 63.947782h-99.316876c-70.253892 0-127.334475 57.080583-127.334475 127.334474v412.530565c0 70.253892 57.080583 127.334475 127.334475 127.334475h3.345033v180.233509c0 25.509079 20.908762 46.417841 46.417842 46.417842s46.417841-20.908762 46.417841-46.417842V731.147296h3.345033c70.253892 0 127.334475-57.080583 127.334475-127.334475V191.282256c-0.208873-70.253892-57.498328-127.334475-127.543348-127.334474zM534.532644 911.172957c0 11.709153-9.618379 21.327531-21.326507 21.327531-11.709153 0-21.326507-9.618379-21.326508-21.327531v-180.234534h42.654039v180.234534zM665.213176 603.603948c0 56.453965-45.790199 102.244165-102.244165 102.244165h-99.316876c-56.453965 0-102.244165-45.790199-102.244165-102.244165V191.282256c0-56.453965 45.790199-102.244165 102.244165-102.244164h99.316876c56.453965 0 102.244165 45.790199 102.244165 102.244164V603.603948z" fill="#1A3F6F" /><path d="M387.962436 625.349225c-6.899963 0-12.545667-5.645704-12.545667-12.545667V203.409154c0-52.690163 42.862911-95.553074 95.553074-95.553074 6.899963 0 12.545667 5.645704 12.545667 12.545667s-5.645704 12.545667-12.545667 12.545667c-38.890236 0-70.462764 31.572528-70.462764 70.462764v409.394404c0 6.898939-5.64468 12.544643-12.544643 12.544643z" fill="#804830" /><path d="M567.778201 623.258451a32.749996 32.749996 0 0 1-32.826788-32.826787V204.454541a32.749996 32.749996 0 0 1 32.826788-32.826787 32.749996 32.749996 0 0 1 32.826787 32.826787v386.185995c-0.208873 17.981474-14.845313 32.617915-32.826787 32.617915zM458.634073 623.258451a32.749996 32.749996 0 0 1-32.826787-32.826787V204.454541a32.749996 32.749996 0 0 1 32.826787-32.826787 32.749996 32.749996 0 0 1 32.826787 32.826787v386.185995c0 17.981474-14.636441 32.617915-32.826787 32.617915z" fill="#633621" /></svg>